<svg xmlns="http://www.w3.org/2000/svg" xmlns:xlink="http://www.w3.org/1999/xlink" width="500" zoomAndPan="magnify" viewBox="0 0 375 374.999991" height="500" preserveAspectRatio="xMidYMid meet" version="1.0"><defs><clipPath id="70dc2f3683"><path d="M 17 17 L 358 17 L 358 358 L 17 358 Z M 17 17 " clip-rule="nonzero"/></clipPath><clipPath id="dd3551f5f4"><path d="M 214.40625 28.789062 C 231.503906 47.082031 255.671875 57.09375 280.699219 56.25 C 290.894531 55.902344 300.773438 59.800781 307.984375 67.015625 C 315.199219 74.226562 319.097656 84.105469 318.75 94.300781 C 317.90625 119.324219 327.917969 143.496094 346.210938 160.59375 C 353.660156 167.558594 357.890625 177.300781 357.890625 187.5 C 357.890625 197.699219 353.660156 207.441406 346.210938 214.40625 C 327.917969 231.503906 317.90625 255.671875 318.75 280.699219 C 319.097656 290.894531 315.199219 300.773438 307.984375 307.984375 C 300.773438 315.199219 290.894531 319.097656 280.699219 318.75 C 255.671875 317.90625 231.503906 327.917969 214.40625 346.210938 C 207.441406 353.660156 197.699219 357.890625 187.5 357.890625 C 177.300781 357.890625 167.558594 353.660156 160.59375 346.210938 C 143.496094 327.917969 119.324219 317.90625 94.300781 318.75 C 84.105469 319.097656 74.226562 315.199219 67.015625 307.984375 C 59.800781 300.773438 55.902344 290.894531 56.25 280.699219 C 57.09375 255.671875 47.082031 231.503906 28.789062 214.40625 C 21.339844 207.441406 17.109375 197.699219 17.109375 187.5 C 17.109375 177.300781 21.339844 167.558594 28.789062 160.59375 C 47.082031 143.496094 57.09375 119.324219 56.25 94.300781 C 55.902344 84.105469 59.800781 74.226562 67.015625 67.015625 C 74.226562 59.800781 84.105469 55.902344 94.300781 56.25 C 119.324219 57.09375 143.496094 47.082031 160.59375 28.789062 C 167.558594 21.339844 177.300781 17.109375 187.5 17.109375 C 197.699219 17.109375 207.441406 21.339844 214.40625 28.789062 Z M 214.40625 28.789062 " clip-rule="nonzero"/></clipPath></defs><g clip-path="url(#70dc2f3683)"><g clip-path="url(#dd3551f5f4)"><rect x="-37.5" width="450" fill="#ff914d" y="-37.499999" height="449.999989" fill-opacity="1"/></g></g></svg>